<svg xmlns="http://www.w3.org/2000/svg" xmlns:xlink="http://www.w3.org/1999/xlink" width="0" height="0" style="position:absolute">

    <symbol id="briefcase" viewBox="0 0 32 32">
        <path d="M30 8h-8V6c0-1.1-.9-2-2-2h-8c-1.1 0-2 .9-2 2v2H2c-1.1 0-2 .9-2 2v18c0 1.1.9 2 2 2h28c1.1 0 2-.9 2-2V10c0-1.1-.9-2-2-2zM12 6.004L12.004 6h7.993l.004.004V8h-8V6.004zM30 16h-4v3c0 .55-.45 1-1 1h-2c-.55 0-1-.45-1-1v-3H10v3c0 .55-.45 1-1 1H7c-.55 0-1-.45-1-1v-3H2v-2h28v2z"/>
    </symbol>

    <symbol id="facebook" viewBox="0 0 32 32">
        <path d="M26.667 0H5.334C2.4 0 0 2.4 0 5.334v21.332C0 29.602 2.4 32 5.334 32h21.333C29.6 32 32 29.602 32 26.666V5.334C32 2.4 29.6 0 26.667 0zm.54 16H22v14h-6V16h-2.89v-4.58H16V8.445C16 4.403 17.744 2 22.496 2h5.476v4.955H23.5c-1.33-.002-1.493.692-1.493 1.985L22 11.42h6L27.206 16z"/>
    </symbol>

    <symbol id="googleplus" viewBox="0 0 32 32">
        <path d="M.025 27.177c-.008-.08-.014-.158-.018-.238.004.08.01.158.018.237zm7.347-9.516c2.875.087 4.804-2.896 4.308-6.66S8.45 4.21 5.574 4.125C2.698 4.04.77 6.922 1.266 10.688c.496 3.765 3.23 6.887 6.106 6.973zM32 8V5.334C32 2.4 29.6 0 26.667 0H5.334C2.45 0 .084 2.32.004 5.185 1.828 3.58 4.358 2.238 6.97 2.238h11.163L15.635 4.35h-3.54c2.348.9 3.6 3.63 3.6 6.43 0 2.35-1.308 4.374-3.154 5.812-1.8 1.403-2.142 1.99-2.142 3.184 0 1.018 1.93 2.75 2.938 3.462 2.95 2.08 3.904 4.01 3.904 7.233 0 .514-.064 1.027-.19 1.53h9.617C29.6 32 32 29.604 32 26.668V10h-6v6h-2v-6h-6V8h6V2h2v6h6zM5.81 23.936c.674 0 1.293-.018 1.935-.018-.848-.823-1.52-1.83-1.52-3.074 0-.738.236-1.448.567-2.08-.337.025-.68.032-1.035.032-2.324 0-4.297-.752-5.756-1.995v8.406c1.67-.793 3.654-1.27 5.81-1.27zm-5.703 3.79c-.035-.17-.06-.343-.08-.52.02.177.046.35.08.52zm14.126 2.05c-.47-1.838-2.14-2.75-4.465-4.36-.846-.274-1.778-.435-2.778-.445-2.8-.03-5.41 1.093-6.882 2.763C.606 30.16 2.765 32 5.334 32h8.95c.058-.348.085-.707.085-1.076 0-.392-.05-.775-.138-1.148z"/>
    </symbol>

    <symbol id="home" viewBox="0 0 32 32">
        <path d="M32 19l-6-6V4h-4v5l-6-6L0 19v1h4v10h10v-6h4v6h10V20h4z"/>
    </symbol>

    <symbol id="instagram" viewBox="0 0 32 32">
        <path d="M26.688 0H5.313C2.39 0 0 2.39 0 5.313v21.375C0 29.61 2.39 32 5.313 32h21.375C29.61 32 32 29.61 32 26.69V5.313C32 2.39 29.61 0 26.69 0zM10.244 14h11.513c.218.627.337 1.3.337 2 0 3.36-2.734 6.094-6.094 6.094S9.906 19.36 9.906 16c0-.7.12-1.373.338-2zM28 14.002V26c0 1.1-.9 2-2 2H6c-1.1 0-2-.9-2-2V14h3.128c-.145.644-.222 1.313-.222 2 0 5.014 4.08 9.094 9.094 9.094s9.094-4.08 9.094-9.094c0-.687-.077-1.356-.222-2l3.128.002zM28 7c0 .55-.45 1-1 1h-2c-.55 0-1-.45-1-1V5c0-.55.45-1 1-1h2c.55 0 1 .45 1 1v2z"/>
    </symbol>

    <symbol id="linkedin" viewBox="0 0 32 32">
        <path d="M26.625 0H5.375C2.42 0 0 2.42 0 5.375v21.25C0 29.58 2.42 32 5.375 32h21.25C29.58 32 32 29.58 32 26.625V5.375C32 2.42 29.58 0 26.625 0zM12 26H8V12h4v14zm-2-16c-1.105 0-2-.895-2-2s.895-2 2-2 2 .895 2 2-.895 2-2 2zm16 16h-4v-8c0-1.105-.895-2-2-2s-2 .895-2 2v8h-4V12h4v2.483C18.825 13.35 20.086 12 21.5 12c2.485 0 4.5 2.24 4.5 5v9z"/>
    </symbol>

    <symbol id="list" viewBox="0 0 32 32">
        <path d="M12 2h20v4H12V2zm0 12h20v4H12v-4zm0 12h20v4H12v-4zM0 4c0-2.21 1.79-4 4-4s4 1.79 4 4-1.79 4-4 4-4-1.79-4-4zm0 12c0-2.21 1.79-4 4-4s4 1.79 4 4-1.79 4-4 4-4-1.79-4-4zm0 12c0-2.21 1.79-4 4-4s4 1.79 4 4-1.79 4-4 4-4-1.79-4-4z"/>
    </symbol>

    <symbol id="location" viewBox="0 0 32 32">
        <path d="M16 0C10.477 0 6 4.477 6 10c0 10 10 22 10 22s10-12 10-22c0-5.523-4.477-10-10-10zm0 16c-3.314 0-6-2.686-6-6s2.686-6 6-6 6 2.686 6 6-2.686 6-6 6z"/>
    </symbol>

    <symbol id="office" viewBox="0 0 32 32">
        <path d="M0 32h16V0H0v32zM10 4h4v4h-4V4zm0 8h4v4h-4v-4zm0 8h4v4h-4v-4zM2 4h4v4H2V4zm0 8h4v4H2v-4zm0 8h4v4H2v-4zm16-10h14v2H18zm0 22h4v-8h6v8h4V14H18z"/>
    </symbol>

    <symbol id="search" viewBox="0 0 32 32">
        <path d="M31.008 27.23l-7.58-6.446c-.784-.705-1.622-1.03-2.3-.998C22.92 17.69 24 14.97 24 12 24 5.37 18.627 0 12 0S0 5.37 0 12c0 6.626 5.374 12 12 12 2.973 0 5.692-1.082 7.788-2.87-.03.676.293 1.514.998 2.298l6.447 7.58c1.105 1.226 2.908 1.33 4.008.23s.997-2.903-.23-4.007zM12 20c-4.418 0-8-3.582-8-8s3.582-8 8-8 8 3.582 8 8-3.582 8-8 8z"/>
    </symbol>

    <symbol id="signup" viewBox="0 0 32 32">
        <path d="M14 24.828l-6.414-7.414 1.828-1.828L14 19.172l8.586-7.586 1.83 1.828zM25.993 4l.007.007v23.986l-.007.007H6.007L6 27.993V4.007L6.007 4H2v24c0 2.2 1.8 4 4 4h20c2.2 0 4-1.8 4-4V4h-4.007zM20 4V2c0-1.105-.895-2-2-2h-4c-1.105 0-2 .895-2 2v2H8v4h16V4h-4zm-2 0h-4V2h4v2z"/>
    </symbol>

    <symbol id="tumblr" viewBox="0 0 32 32">
        <path d="M26.668 0H5.334C2.4 0 0 2.4 0 5.334v21.332C0 29.602 2.4 32 5.334 32h21.334C29.6 32 32 29.602 32 26.666V5.334C32 2.4 29.6 0 26.668 0zm-3.802 25.77c-.942.444-1.798.757-2.563.937-.765.178-1.593.267-2.48.267-1.01 0-1.606-.127-2.382-.38-.774-.257-1.437-.622-1.983-1.09-.55-.474-.928-.976-1.14-1.507S12 22.694 12 21.684V13.94H9v-3.127c.867-.28 1.873-.685 2.49-1.21.62-.528 1.116-1.16 1.49-1.897.375-.736.633-1.676.774-2.815h3.14V10H22v3.94h-5.106v5.662c0 1.28-.017 2.02.12 2.383.134.36.472.736.84.953.49.293 1.047.44 1.676.44 1.118 0 2.23-.364 3.336-1.09v3.48z"/>
    </symbol>

    <symbol id="twitter" viewBox="0 0 32 32">
        <path d="M32 6.076c-1.177.522-2.443.875-3.77 1.034 1.354-.813 2.395-2.1 2.886-3.632-1.27.752-2.674 1.3-4.17 1.593C25.75 3.796 24.044 3 22.157 3c-3.627 0-6.566 2.94-6.566 6.565 0 .515.058 1.016.17 1.496-5.456-.275-10.294-2.89-13.532-6.86-.565.97-.89 2.096-.89 3.3 0 2.278 1.16 4.287 2.922 5.465-1.076-.034-2.088-.33-2.974-.82v.082c0 3.18 2.262 5.834 5.265 6.437-.55.15-1.13.23-1.73.23-.422 0-.833-.04-1.234-.118.835 2.608 3.26 4.506 6.133 4.56-2.248 1.76-5.08 2.81-8.155 2.81-.53 0-1.052-.032-1.566-.093 2.904 1.863 6.355 2.95 10.063 2.95 12.076 0 18.68-10.004 18.68-18.68 0-.285-.007-.568-.02-.85C30.006 8.55 31.12 7.394 32 6.077z"/>
    </symbol>

    <symbol id="user" viewBox="0 0 32 32">
        <path d="M8 10c0-4.418 3.582-8 8-8s8 3.582 8 8-3.582 8-8 8-8-3.582-8-8zm16 10H8c-4.418 0-8 3.582-8 8v2h32v-2c0-4.418-3.582-8-8-8z"/>
    </symbol>

    <symbol id="youtube" viewBox="0 0 32 32">
        <path d="M26 4H6c-3.3 0-6 2.7-6 6v12c0 3.3 2.7 6 6 6h20c3.3 0 6-2.7 6-6V10c0-3.3-2.7-6-6-6zM12 24V8l10 8-10 8z"/>
    </symbol>
</svg>