<?xml version="1.0" encoding="utf-8"?>
<!-- Generated by IcoMoon.io -->
<!DOCTYPE svg PUBLIC "-//W3C//DTD SVG 1.1//EN" "http://www.w3.org/Graphics/SVG/1.1/DTD/svg11.dtd">
<svg version="1.1" xmlns="http://www.w3.org/2000/svg" xmlns:xlink="http://www.w3.org/1999/xlink" width="40" height="40" viewBox="0 0 40 40">
<g id="icomoon-ignore">
</g>
<path d="M19.756 1.602c-10.162 0.136-18.29 8.484-18.154 18.646 0.136 10.156 8.484 18.286 18.646 18.15 10.158-0.136 18.288-8.484 18.15-18.646-0.134-10.158-8.482-18.286-18.642-18.15zM19.702 31.2h-0.102c-1.564-0.046-2.668-1.2-2.624-2.742 0.044-1.514 1.174-2.616 2.688-2.616l0.092 0.002c1.608 0.048 2.7 1.19 2.652 2.776-0.044 1.518-1.158 2.58-2.706 2.58zM26.284 18.136c-0.37 0.522-1.178 1.172-2.198 1.966l-1.124 0.776c-0.616 0.48-0.988 0.93-1.126 1.372-0.112 0.352-0.164 0.442-0.174 1.152l-0.002 0.182h-4.286l0.012-0.364c0.052-1.492 0.090-2.368 0.708-3.094 0.97-1.138 3.11-2.516 3.2-2.574 0.306-0.232 0.564-0.494 0.758-0.774 0.45-0.62 0.648-1.11 0.648-1.588 0-0.666-0.198-1.282-0.588-1.83-0.376-0.53-1.090-0.798-2.122-0.798-1.024 0-1.724 0.326-2.144 0.992-0.434 0.686-0.65 1.404-0.65 2.14v0.184h-4.42l0.008-0.192c0.114-2.708 1.080-4.656 2.872-5.794 1.124-0.726 2.524-1.092 4.156-1.092 2.138 0 3.946 0.52 5.366 1.544 1.44 1.038 2.17 2.594 2.17 4.622 0 1.136-0.358 2.202-1.064 3.17z" fill="#000000"></path>
</svg>
