<?xml version="1.0" encoding="utf-8"?>
<!-- Generator: Adobe Illustrator 17.0.0, SVG Export Plug-In . SVG Version: 6.00 Build 0)  -->
<!DOCTYPE svg PUBLIC "-//W3C//DTD SVG 1.1//EN" "http://www.w3.org/Graphics/SVG/1.1/DTD/svg11.dtd">
<svg version="1.1" id="Layer_1" xmlns="http://www.w3.org/2000/svg" xmlns:xlink="http://www.w3.org/1999/xlink" x="0px" y="0px"
	 width="295.003px" height="226.261px" viewBox="0 0 295.003 226.261" enable-background="new 0 0 295.003 226.261"
	 xml:space="preserve">
<path d="M284.04,110.281l-35.853-30.575V4c0-2.209-1.976-4-4.415-4h-41.202c-2.438,0-4.415,1.791-4.415,4v33.039
	L160.219,4.686c-7.327-6.248-19.206-6.248-26.533,0L9.864,110.281c-15.677,13.369-10.362,22.627,0,22.627c6.975,0,14.822,0,23.345,0
	v81.353c0,6.627,6.3,12,14.071,12h68.093v-87.928c0-2.209,2.1-4,4.69-4h53.777c2.59,0,4.69,1.791,4.69,4v87.928h68.093
	c7.771,0,14.071-5.373,14.071-12v-81.353c8.466,0,16.311,0,23.345,0C294.559,132.908,302.258,125.817,284.04,110.281z"/>
</svg>
