<?xml version="1.0" encoding="utf-8"?>
<!-- Generator: Adobe Illustrator 17.0.0, SVG Export Plug-In . SVG Version: 6.00 Build 0)  -->
<!DOCTYPE svg PUBLIC "-//W3C//DTD SVG 1.1//EN" "http://www.w3.org/Graphics/SVG/1.1/DTD/svg11.dtd">
<svg version="1.1" id="svg-source" xmlns="http://www.w3.org/2000/svg" xmlns:xlink="http://www.w3.org/1999/xlink" x="0px" y="0px"
	 width="32px" height="32px" viewBox="0 0 32 32" enable-background="new 0 0 32 32" xml:space="preserve">
<g id="design-pencil-rule" display="none">
	<g id="Expanded" display="inline">
		<g>
			<g>
				<path d="M28,32h-9.333C18.298,32,18,31.701,18,31.333V0.667C18,0.299,18.298,0,18.667,0H28c0.368,0,0.667,0.299,0.667,0.667
					v30.667C28.667,31.701,28.368,32,28,32z M19.333,30.667h8V1.333h-8V30.667z"/>
			</g>
			<g>
				<rect x="18.667" y="5.333" width="3.333" height="1.333"/>
			</g>
			<g>
				<rect x="18.667" y="9.333" width="3.333" height="1.333"/>
			</g>
			<g>
				<rect x="18.667" y="13.333" width="3.333" height="1.333"/>
			</g>
			<g>
				<rect x="18.667" y="17.333" width="3.333" height="1.334"/>
			</g>
			<g>
				<rect x="18.667" y="21.333" width="3.333" height="1.334"/>
			</g>
			<g>
				<rect x="18.667" y="25.333" width="3.333" height="1.334"/>
			</g>
			<g>
				<path d="M9.333,30.667H6.666c-1.838,0-3.333-1.496-3.333-3.334V8c0-0.131,0.039-0.261,0.112-0.37l4-6
					c0.247-0.371,0.861-0.371,1.109,0l4,6c0.072,0.109,0.111,0.239,0.111,0.37v19.333C12.666,29.171,11.171,30.667,9.333,30.667z
					 M4.666,8.202v19.131c0,1.104,0.897,2,2,2h2.667c1.103,0,2-0.896,2-2V8.202L8,3.202L4.666,8.202z"/>
			</g>
			<g>
				<path d="M12,26.667H4c-0.369,0-0.667-0.299-0.667-0.667S3.631,25.333,4,25.333h8c0.368,0,0.666,0.299,0.666,0.667
					S12.368,26.667,12,26.667z"/>
			</g>
			<g>
				<path d="M12,24H4c-0.369,0-0.667-0.299-0.667-0.667c0-0.367,0.298-0.666,0.667-0.666h8c0.368,0,0.666,0.299,0.666,0.666
					C12.666,23.701,12.368,24,12,24z"/>
			</g>
			<g>
				<path d="M6.666,24C6.298,24,6,23.701,6,23.333V10.667C6,10.299,6.298,10,6.666,10c0.369,0,0.667,0.299,0.667,0.667v12.667
					C7.333,23.701,7.035,24,6.666,24z"/>
			</g>
			<g>
				<path d="M9.333,24c-0.369,0-0.667-0.299-0.667-0.667V10.667C8.666,10.299,8.964,10,9.333,10S10,10.299,10,10.667v12.667
					C10,23.701,9.702,24,9.333,24z"/>
			</g>
			<g>
				<rect x="6" y="4.667" width="4" height="1.333"/>
			</g>
			<g>
				<path d="M6,11.333c-1.471,0-2.667-1.196-2.667-2.667C3.333,8.299,3.631,8,4,8c0.368,0,0.666,0.299,0.666,0.667
					C4.666,9.402,5.265,10,6,10s1.333-0.598,1.333-1.333C7.333,8.299,7.631,8,8,8c0.368,0,0.666,0.299,0.666,0.667
					C8.666,10.137,7.471,11.333,6,11.333z"/>
			</g>
			<g>
				<path d="M10,11.333c-1.471,0-2.667-1.196-2.667-2.667C7.333,8.299,7.631,8,8,8c0.368,0,0.666,0.299,0.666,0.667
					C8.666,9.402,9.265,10,10,10s1.333-0.598,1.333-1.333C11.333,8.299,11.631,8,12,8c0.368,0,0.666,0.299,0.666,0.667
					C12.666,10.137,11.471,11.333,10,11.333z"/>
			</g>
		</g>
	</g>
</g>
<g id="briefcase" display="none">
	<path display="inline" d="M14.826,19.006h0.005l1.932-0.021c0.275-0.004,0.496-0.229,0.493-0.505s-0.225-0.492-0.505-0.494
		l-1.931,0.022c-0.275,0.004-0.496,0.229-0.492,0.504C14.33,18.786,14.553,19.006,14.826,19.006z M30.656,8.598H24.25
		c0.011-0.066,0.021-0.132,0.021-0.201c0-0.454-0.25-0.852-0.624-1.078v-4.67c0-0.275-0.224-0.499-0.499-0.499H7.988
		c-0.275,0-0.499,0.224-0.499,0.499v4.646C7.09,7.514,6.818,7.923,6.818,8.396c0,0.069,0.01,0.135,0.021,0.201H1.344
		C0.603,8.598,0,9.2,0,9.94v18.567c0,0.74,0.603,1.343,1.344,1.343h29.312c0.741,0,1.344-0.603,1.344-1.343V9.94
		C32,9.2,31.397,8.598,30.656,8.598z M30.461,9.749L19.215,17.44V9.749H30.461z M10.405,7.347v-2.28h10.373v2.228
		c-0.399,0.22-0.672,0.629-0.672,1.103c0,0.069,0.011,0.135,0.021,0.201H10.96c0.012-0.066,0.021-0.132,0.021-0.201
		C10.981,7.961,10.754,7.576,10.405,7.347z M23.272,8.396c0,0.079-0.04,0.15-0.103,0.201h-1.962
		c-0.062-0.051-0.103-0.122-0.103-0.201c0-0.152,0.146-0.277,0.325-0.277h1.517C23.127,8.119,23.272,8.244,23.272,8.396z
		 M8.486,3.147h14.163v3.974h-0.873V4.567c0-0.275-0.224-0.499-0.499-0.499H9.907c-0.275,0-0.499,0.224-0.499,0.499v2.554H8.486
		V3.147z M8.142,8.119h1.516c0.181,0,0.327,0.125,0.327,0.277c0,0.079-0.041,0.15-0.104,0.201H7.919
		c-0.064-0.05-0.105-0.121-0.105-0.201C7.814,8.244,7.962,8.119,8.142,8.119z M12.306,28.699H1.344
		c-0.104,0-0.192-0.088-0.192-0.191V10.211l11.154,8.668V28.699z M12.306,17.421L2.433,9.749h9.873V17.421z M18.062,21.963h-0.574
		c-0.276,0-0.5,0.224-0.5,0.5c0,0.275,0.224,0.499,0.5,0.499h0.574v0.681h-0.574c-0.276,0-0.5,0.224-0.5,0.499
		c0,0.276,0.224,0.499,0.5,0.499h0.574v0.825h-0.574c-0.276,0-0.5,0.223-0.5,0.499c0,0.275,0.224,0.499,0.5,0.499h0.574v0.537
		h-0.574c-0.276,0-0.5,0.224-0.5,0.499s0.224,0.499,0.5,0.499h0.574v0.7h-4.605v-0.7h0.624c0.275,0,0.498-0.224,0.498-0.499
		s-0.223-0.499-0.498-0.499h-0.624v-0.537h0.624c0.275,0,0.498-0.224,0.498-0.499c0-0.276-0.223-0.499-0.498-0.499h-0.624v-0.825
		h0.624c0.275,0,0.498-0.223,0.498-0.499c0-0.275-0.223-0.499-0.498-0.499h-0.624v-0.681h0.624c0.275,0,0.498-0.224,0.498-0.499
		c0-0.276-0.223-0.5-0.498-0.5h-0.624v-0.7h4.605V21.963z M18.062,20.111h-4.605V15.41h4.605V20.111z M18.062,10.713H17.47
		c-0.275,0-0.499,0.224-0.499,0.499s0.224,0.499,0.499,0.499h0.592v0.682H17.47c-0.275,0-0.499,0.223-0.499,0.499
		c0,0.274,0.224,0.498,0.499,0.498h0.592v0.869h-4.605V13.39h0.606c0.276,0,0.499-0.224,0.499-0.498
		c0-0.276-0.223-0.499-0.499-0.499h-0.606v-0.682h0.606c0.276,0,0.499-0.224,0.499-0.499s-0.223-0.499-0.499-0.499h-0.606V9.749
		h4.605V10.713z M30.849,28.508c0,0.104-0.088,0.191-0.192,0.191H19.215v-9.864l11.634-7.956
		C30.849,10.879,30.849,28.508,30.849,28.508z"/>
</g>
<g id="office">
	<path d="M31.218,27.779h-1.559c0.238-0.385,0.386-0.816,0.386-1.28V6.428c0-1.51-1.426-2.736-3.179-2.736h-8.372
		c-0.734,0-1.403,0.224-1.941,0.586V3.024C16.553,1.355,15.104,0,13.321,0H4.779C2.996,0,1.548,1.355,1.548,3.024v23.12
		c0,0.604,0.193,1.161,0.52,1.635H0.782c-0.427,0-0.774,0.333-0.774,0.746v2.724C0.008,31.665,0.355,32,0.782,32h30.436
		c0.426,0,0.774-0.335,0.774-0.751v-2.724C31.992,28.112,31.644,27.779,31.218,27.779z M16.813,6.428
		c0-0.671,0.769-1.237,1.681-1.237h8.372c0.91,0,1.68,0.566,1.68,1.237v20.071c0,0.669-0.77,1.233-1.68,1.233h-8.372
		c-0.912,0-1.681-0.564-1.681-1.233V6.428z M3.048,3.024c0-0.854,0.776-1.548,1.731-1.548h8.542c0.955,0,1.731,0.694,1.731,1.548
		v23.12c0,0.855-0.776,1.55-1.731,1.55H4.779c-0.955,0-1.731-0.694-1.731-1.55C3.048,26.144,3.048,3.024,3.048,3.024z
		 M30.441,30.501H1.559v-1.225h28.883L30.441,30.501L30.441,30.501z M25.903,24.67h-6.21c-0.425,0-0.769,0.295-0.769,0.658
		c0,0.365,0.344,0.658,0.769,0.658h6.21c0.423,0,0.766-0.293,0.766-0.658C26.669,24.965,26.326,24.67,25.903,24.67z M4.891,23.138
		h8.31c0.388,0,0.699-0.324,0.699-0.727V4.726c0-0.402-0.312-0.729-0.699-0.729h-8.31c-0.387,0-0.699,0.326-0.699,0.729v17.686
		C4.191,22.813,4.504,23.138,4.891,23.138z M9.735,5.453h2.767v3.02H9.735V5.453z M9.735,9.879h2.767v2.66H9.735V9.879z
		 M9.735,13.947h2.767v3.32H9.735V13.947z M9.735,18.678h2.767v3.005H9.735V18.678z M5.589,5.453h2.847v3.02H5.589V5.453z
		 M5.589,9.879h2.847v2.66H5.589V9.879z M5.589,13.947h2.847v3.32H5.589V13.947z M5.589,18.678h2.847v3.005H5.589V18.678z
		 M12.544,24.629H6.337c-0.39,0-0.707,0.314-0.707,0.699c0,0.388,0.317,0.7,0.707,0.7h6.207c0.39,0,0.707-0.312,0.707-0.7
		C13.251,24.943,12.934,24.629,12.544,24.629z M18.494,23.205h8.44c0.415,0,0.751-0.337,0.751-0.751V7.684
		c0-0.413-0.336-0.75-0.751-0.75h-8.44c-0.414,0-0.749,0.337-0.749,0.75v14.771C17.745,22.868,18.08,23.205,18.494,23.205z
		 M23.448,8.435h2.736v3.897h-2.736V8.435z M23.448,13.739h2.736v3.363h-2.736V13.739z M23.448,18.508h2.736v3.195h-2.736V18.508z
		 M19.242,8.435h2.906v3.897h-2.906V8.435z M19.242,13.739h2.906v3.363h-2.906V13.739z M19.242,18.508h2.906v3.195h-2.906V18.508z"
		/>
</g>
<g id="chemistry" display="none">
	<path display="inline" d="M28.289,28.495l-7.781-13.263V2.633c0-0.014-0.007-0.025-0.008-0.038
		c0.064-0.191,0.109-0.392,0.109-0.603C20.609,0.894,19.662,0,18.498,0h-4.996c-1.164,0-2.111,0.894-2.111,1.993
		c0,0.198,0.04,0.387,0.098,0.567c-0.004,0.025-0.014,0.047-0.014,0.073v12.63L3.711,28.495c-0.521,0.888-0.592,1.755-0.198,2.441
		C3.905,31.622,4.688,32,5.718,32h20.563c1.029,0,1.812-0.378,2.205-1.064C28.88,30.25,28.81,29.383,28.289,28.495z M13.502,1.148
		h4.996c0.531,0,0.963,0.378,0.963,0.844c0,0.465-0.432,0.844-0.963,0.844h-4.996c-0.531,0-0.964-0.379-0.964-0.844
		C12.538,1.527,12.971,1.148,13.502,1.148z M22.022,22.983c-0.323,0.389-0.526,0.608-0.937,0.608c-0.409,0-0.612-0.22-0.937-0.608
		c-0.349-0.417-0.782-0.937-1.642-0.937s-1.292,0.52-1.641,0.938c-0.322,0.387-0.525,0.607-0.934,0.607s-0.611-0.22-0.935-0.607
		c-0.349-0.418-0.781-0.938-1.64-0.938s-1.292,0.52-1.641,0.938c-0.322,0.387-0.525,0.607-0.934,0.607
		c-0.406,0-0.608-0.22-0.932-0.607c-0.262-0.315-0.573-0.688-1.078-0.854l1.228-2.093h1.779c0.254,0,0.46-0.205,0.46-0.459
		c0-0.252-0.206-0.459-0.46-0.459h-1.241l0.641-1.091h1.365c0.255,0,0.46-0.205,0.46-0.458s-0.205-0.459-0.46-0.459h-0.826
		l0.732-1.249h1.021c0.254,0,0.459-0.206,0.459-0.46c0-0.253-0.205-0.459-0.459-0.459h-0.853v-1.376l1.225-0.003
		c0.253-0.001,0.459-0.207,0.457-0.46c0-0.253-0.206-0.458-0.459-0.458h-0.001l-1.222,0.004v-1.38h1.223
		c0.255,0,0.459-0.206,0.459-0.459s-0.204-0.459-0.459-0.459h-1.223V8.974h1.223c0.255,0,0.459-0.206,0.459-0.459
		c0-0.254-0.204-0.459-0.459-0.459h-1.223V6.31h1.223c0.255,0,0.459-0.205,0.459-0.459s-0.199-0.46-0.454-0.46h-1.223V3.798
		c0.269,0.117,0.565,0.187,0.88,0.187h4.996c0.308,0,0.598-0.066,0.861-0.177v11.595c0,0.134,0.054,0.251,0.13,0.349
		c0.005,0.01,0.004,0.021,0.01,0.03l3.711,6.324C22.643,22.25,22.303,22.648,22.022,22.983z"/>
</g>
<g id="globe" display="none">
	<g display="inline">
		<path d="M28.74,19.854l-2.132,2.133l-1.754-1.754c2.733-3.042,3.458-7.231,2.175-10.899l0,0V9.332
			c-0.525-1.497-1.349-2.906-2.542-4.101c-2.06-2.062-4.808-3.199-7.727-3.199c-0.205,0-0.402,0.046-0.607,0.059
			C16.09,2.098,16.03,2.084,15.97,2.108c-2.421,0.175-4.676,1.127-6.481,2.755L7.734,3.108l2.129-2.129
			c0.224-0.225,0.224-0.587,0-0.812c-0.225-0.224-0.589-0.224-0.813,0L6.517,2.702c-5.65,5.655-5.65,14.852,0,20.502
			c2.714,2.713,6.247,4.11,9.81,4.22c-0.211,1.082-0.953,3.431-3.462,3.431h-0.717c-0.317,0-0.575,0.258-0.575,0.572
			c0,0.315,0.258,0.573,0.575,0.573h9.237c0.317,0,0.577-0.258,0.577-0.573c0-0.314-0.26-0.572-0.577-0.572h-5.562
			c1.025-0.983,1.499-2.382,1.664-3.446c3.466-0.172,6.884-1.561,9.527-4.204l2.539-2.539c0.224-0.225,0.224-0.585,0-0.812
			C29.328,19.63,28.964,19.63,28.74,19.854z M23.675,19.866c-1.847,1.847-4.298,2.865-6.911,2.865c-2.607,0-5.064-1.019-6.909-2.865
			C8.7,18.712,7.937,17.323,7.482,15.86l1.015-0.311l1.33,0.968c0.102,0.073,0.222,0.109,0.339,0.109
			c0.162,0,0.326-0.073,0.438-0.206l1.973-2.317c0.15-0.171,0.187-0.41,0.093-0.617c-0.093-0.203-0.298-0.336-0.522-0.336h-1.403
			l-0.736-0.509L9.964,11.69l0.931-0.648c0.15-0.106,0.243-0.282,0.243-0.471V7.172c0-0.316-0.257-0.573-0.571-0.573H9.4
			c0.159-0.184,0.28-0.382,0.454-0.555c1.48-1.482,3.357-2.399,5.388-2.715l-0.654,1.423c-0.096,0.216-0.055,0.468,0.109,0.637
			l1.087,1.135c0.049,0.053,0.106,0.092,0.169,0.124l2.223,1.046c0.169,0.076,0.355,0.068,0.512-0.012c0,0,0.547-0.288,0.892-0.503
			c0.339,0,1.417,0.242,2.345,0.498l1.721,2.03c0.109,0.126,0.269,0.201,0.438,0.201h1.923
			C27.117,13.301,26.367,17.177,23.675,19.866z M8.514,7.745h1.478v2.528L9.045,10.93c-0.162,0.112-0.255,0.301-0.241,0.498
			l0.068,1.552c0.009,0.181,0.102,0.343,0.249,0.447l1.116,0.771c0.097,0.065,0.211,0.101,0.329,0.101h0.314l-0.812,0.975
			l-1.133-0.818c-0.146-0.106-0.334-0.134-0.504-0.085L7.17,14.757C6.727,12.372,7.182,9.86,8.514,7.745z M23.675,6.044
			c0.808,0.808,1.406,1.738,1.874,2.716h-1.201l-1.663-1.959c-0.074-0.087-0.17-0.149-0.279-0.181
			c-2.843-0.807-3.185-0.58-3.374-0.454c-0.166,0.111-0.432,0.26-0.623,0.364L16.54,5.654l-0.744-0.777l0.77-1.677
			c0.065-0.003,0.129-0.02,0.194-0.02C19.374,3.181,21.828,4.196,23.675,6.044z M6.963,3.964l1.713,1.715
			C8.36,6.029,8.057,6.381,7.794,6.76c-0.011,0.011-0.017,0.024-0.03,0.038c-2.908,4.25-2.495,10.109,1.278,13.881
			c2.063,2.063,4.805,3.2,7.722,3.2c2.725,0,5.272-1.024,7.278-2.835l1.712,1.713c-5.229,4.793-13.36,4.699-18.425-0.365
			C2.265,17.33,2.169,9.195,6.963,3.964z"/>
		<path d="M19.341,14.359c-0.132-0.174-0.358-0.251-0.574-0.215c-0.214,0.044-0.389,0.211-0.438,0.425
			c-0.096,0.374-0.207,0.796-0.309,1.135c-0.358-0.274-0.903-0.652-1.727-1.175l-2.126-1.296c-0.147-0.092-0.343-0.106-0.504-0.041
			c-0.169,0.063-0.295,0.203-0.347,0.375l-0.484,1.699l-1.582,1.979c-0.079,0.103-0.123,0.229-0.123,0.359v1.964
			c0,0.263,0.178,0.493,0.432,0.557l2.934,0.724h4.392c0.112,0,0.222-0.036,0.314-0.096l1.814-1.188
			c0.159-0.106,0.255-0.287,0.255-0.48v-1.996c0-0.126-0.039-0.246-0.112-0.348L19.341,14.359z M20.121,18.774l-1.409,0.924
			l-4.077,0.018l-2.361-0.594v-1.316l1.529-1.909c0.047-0.061,0.082-0.129,0.104-0.203l0.31-1.083l1.472,0.895
			c0.857,0.544,1.875,1.255,1.981,1.346c0.079,0.235,0.325,0.425,0.572,0.425c0.383,0,0.569-0.14,0.897-1.283l0.982,1.288
			C20.121,17.282,20.121,18.774,20.121,18.774z"/>
		<path d="M24.89,10.203h-2.126c-0.317,0-0.574,0.259-0.574,0.575v2.175c0,0.182,0.088,0.349,0.229,0.46
			c0.099,0.073,0.222,0.113,0.345,0.113c0.053,0,0.107-0.005,0.162-0.021l2.125-0.619c0.244-0.07,0.414-0.295,0.414-0.552v-1.556
			C25.465,10.462,25.207,10.203,24.89,10.203z M24.315,11.904l-0.978,0.284v-0.837h0.978V11.904z"/>
	</g>
</g>
<g id="list" display="none">
	<g display="inline">
		<path d="M2.892,13.107C1.298,13.107,0,14.403,0,15.999c0,1.595,1.298,2.894,2.892,2.894c1.597,0,2.893-1.299,2.893-2.894
			C5.784,14.403,4.488,13.107,2.892,13.107z M2.892,17.703c-0.938,0-1.701-0.765-1.701-1.704c0-0.94,0.763-1.703,1.701-1.703
			c0.94,0,1.704,0.763,1.704,1.703C4.596,16.938,3.832,17.703,2.892,17.703z"/>
		<path d="M2.892,1.624C1.298,1.624,0,2.921,0,4.515C0,6.11,1.298,7.409,2.892,7.409c1.597,0,2.893-1.299,2.893-2.895
			C5.784,2.921,4.488,1.624,2.892,1.624z M2.892,6.222c-0.938,0-1.701-0.766-1.701-1.707c0-0.939,0.763-1.699,1.701-1.699
			c0.94,0,1.704,0.76,1.704,1.699C4.596,5.456,3.832,6.222,2.892,6.222z"/>
		<path d="M2.892,24.589C1.298,24.589,0,25.886,0,27.484c0,1.594,1.298,2.892,2.892,2.892c1.597,0,2.893-1.298,2.893-2.892
			C5.784,25.886,4.488,24.589,2.892,24.589z M2.892,29.187c-0.938,0-1.701-0.764-1.701-1.702c0-0.943,0.763-1.706,1.701-1.706
			c0.94,0,1.704,0.763,1.704,1.706C4.596,28.423,3.832,29.187,2.892,29.187z"/>
		<path d="M31.404,26.889H9.78c-0.329,0-0.594,0.269-0.594,0.596c0,0.326,0.265,0.594,0.594,0.594h21.624
			c0.33,0,0.596-0.268,0.596-0.594C32,27.157,31.734,26.889,31.404,26.889z"/>
		<path d="M31.404,15.401H9.78c-0.329,0-0.594,0.27-0.594,0.598c0,0.326,0.265,0.592,0.594,0.592h21.624
			c0.33,0,0.596-0.266,0.596-0.592C32,15.671,31.734,15.401,31.404,15.401z"/>
		<path d="M31.404,3.92H9.78c-0.329,0-0.594,0.267-0.594,0.595S9.451,5.109,9.78,5.109h21.624c0.33,0,0.596-0.267,0.596-0.595
			S31.734,3.92,31.404,3.92z"/>
	</g>
</g>
</svg>
