<svg xmlns="http://www.w3.org/2000/svg" xmlns:xlink="http://www.w3.org/1999/xlink" width="0" height="0" style="position:absolute">

    <symbol id="defs" viewBox="">
        <symbol viewBox="0 0 32 32"><path d="M30 8h-8V6c0-1.1-.9-2-2-2h-8c-1.1 0-2 .9-2 2v2H2c-1.1 0-2 .9-2 2v18c0 1.1.9 2 2 2h28c1.1 0 2-.9 2-2V10c0-1.1-.9-2-2-2zM12 6.004L12.004 6h7.993l.004.004V8h-8V6.004zM30 16h-4v3c0 .55-.45 1-1 1h-2c-.55 0-1-.45-1-1v-3H10v3c0 .55-.45 1-1 1H7c-.55 0-1-.45-1-1v-3H2v-2h28v2z"/></symbol><symbol viewBox="0 0 32 32"><path d="M26.667 0H5.334C2.4 0 0 2.4 0 5.334v21.332C0 29.602 2.4 32 5.334 32h21.333C29.6 32 32 29.602 32 26.666V5.334C32 2.4 29.6 0 26.667 0zm.54 16H22v14h-6V16h-2.89v-4.58H16V8.445C16 4.403 17.744 2 22.496 2h5.476v4.955H23.5c-1.33-.002-1.493.692-1.493 1.985L22 11.42h6L27.206 16z"/></symbol><symbol viewBox="0 0 32 32"><path d="M.025 27.177c-.008-.08-.014-.158-.018-.238.004.08.01.157.018.236zm7.347-9.516c2.875.088 4.804-2.895 4.308-6.66S8.45 4.21 5.574 4.126C2.698 4.04.77 6.922 1.266 10.688c.496 3.765 3.23 6.887 6.106 6.973zM32 8V5.334C32 2.4 29.6 0 26.667 0H5.334C2.45 0 .084 2.32.004 5.185 1.828 3.58 4.358 2.238 6.97 2.238h11.163L15.635 4.35h-3.54c2.348.9 3.6 3.63 3.6 6.43 0 2.35-1.308 4.374-3.154 5.812-1.8 1.403-2.14 1.99-2.14 3.184 0 1.018 1.93 2.75 2.937 3.462 2.95 2.08 3.904 4.01 3.904 7.233 0 .515-.063 1.028-.19 1.53h9.618C29.6 32 32 29.605 32 26.67V10h-6v6h-2v-6h-6V8h6V2h2v6h6zM5.81 23.936c.674 0 1.293-.018 1.935-.018-.848-.823-1.52-1.83-1.52-3.074 0-.738.236-1.448.567-2.08-.337.025-.68.032-1.035.032-2.324 0-4.297-.752-5.756-1.995v8.407c1.67-.793 3.655-1.27 5.81-1.27zm-5.703 3.79c-.035-.17-.06-.343-.08-.52.02.177.046.35.08.52zm14.126 2.05c-.47-1.838-2.14-2.75-4.465-4.36-.846-.274-1.778-.435-2.778-.445-2.8-.03-5.41 1.094-6.882 2.764C.606 30.16 2.765 32 5.334 32h8.95c.058-.348.085-.707.085-1.076 0-.392-.05-.775-.14-1.148z"/></symbol><symbol viewBox="0 0 32 32"><path d="M32 19l-6-6V4h-4v5l-6-6L0 19v1h4v10h10v-6h4v6h10V20h4z"/></symbol><symbol viewBox="0 0 32 32"><path d="M26.688 0H5.313C2.39 0 0 2.39 0 5.313v21.375C0 29.61 2.39 32 5.313 32h21.375C29.61 32 32 29.61 32 26.69V5.313C32 2.39 29.61 0 26.69 0zM10.244 14h11.513c.218.627.337 1.3.337 2 0 3.36-2.734 6.094-6.094 6.094S9.906 19.36 9.906 16c0-.7.12-1.373.338-2zM28 14.002V26c0 1.1-.9 2-2 2H6c-1.1 0-2-.9-2-2V14h3.128c-.145.644-.222 1.313-.222 2 0 5.014 4.08 9.094 9.094 9.094s9.094-4.08 9.094-9.094c0-.687-.077-1.356-.222-2l3.128.002zM28 7c0 .55-.45 1-1 1h-2c-.55 0-1-.45-1-1V5c0-.55.45-1 1-1h2c.55 0 1 .45 1 1v2z"/></symbol><symbol viewBox="0 0 32 32"><path d="M26.625 0H5.375C2.42 0 0 2.42 0 5.375v21.25C0 29.58 2.42 32 5.375 32h21.25C29.58 32 32 29.58 32 26.625V5.375C32 2.42 29.58 0 26.625 0zM12 26H8V12h4v14zm-2-16c-1.105 0-2-.895-2-2s.895-2 2-2 2 .895 2 2-.895 2-2 2zm16 16h-4v-8c0-1.105-.895-2-2-2s-2 .895-2 2v8h-4V12h4v2.483C18.825 13.35 20.086 12 21.5 12c2.485 0 4.5 2.24 4.5 5v9z"/></symbol><symbol viewBox="0 0 32 32"><path d="M12 2h20v4H12V2zm0 12h20v4H12v-4zm0 12h20v4H12v-4zM0 4c0-2.21 1.79-4 4-4s4 1.79 4 4-1.79 4-4 4-4-1.79-4-4zm0 12c0-2.21 1.79-4 4-4s4 1.79 4 4-1.79 4-4 4-4-1.79-4-4zm0 12c0-2.21 1.79-4 4-4s4 1.79 4 4-1.79 4-4 4-4-1.79-4-4z"/></symbol><symbol viewBox="0 0 32 32"><path d="M16 0C10.477 0 6 4.477 6 10c0 10 10 22 10 22s10-12 10-22c0-5.523-4.477-10-10-10zm0 16c-3.314 0-6-2.686-6-6s2.686-6 6-6 6 2.686 6 6-2.686 6-6 6z"/></symbol><symbol viewBox="0 0 32 32"><path d="M0 32h16V0H0v32zM10 4h4v4h-4V4zm0 8h4v4h-4v-4zm0 8h4v4h-4v-4zM2 4h4v4H2V4zm0 8h4v4H2v-4zm0 8h4v4H2v-4zm16-10h14v2H18zm0 22h4v-8h6v8h4V14H18z"/></symbol><symbol viewBox="0 0 32 32"><path d="M31.008 27.23l-7.58-6.446c-.784-.705-1.622-1.03-2.3-.998C22.92 17.69 24 14.97 24 12c0-6.63-5.373-12-12-12S0 5.37 0 12c0 6.626 5.374 12 12 12 2.973 0 5.692-1.082 7.788-2.87-.03.676.293 1.514.998 2.298l6.447 7.58c1.105 1.226 2.908 1.33 4.008.23s.998-2.903-.23-4.007zM12 20c-4.418 0-8-3.582-8-8s3.582-8 8-8 8 3.582 8 8-3.582 8-8 8z"/></symbol><symbol viewBox="0 0 32 32"><path d="M14 24.828l-6.414-7.414 1.828-1.828L14 19.172l8.586-7.586 1.83 1.828zM25.993 4l.007.007v23.986l-.007.007H6.007L6 27.993V4.007L6.007 4H2v24c0 2.2 1.8 4 4 4h20c2.2 0 4-1.8 4-4V4h-4.007zM20 4V2c0-1.105-.895-2-2-2h-4c-1.105 0-2 .895-2 2v2H8v4h16V4h-4zm-2 0h-4V2h4v2z"/></symbol><symbol viewBox="0 0 32 32"><path d="M26.668 0H5.334C2.4 0 0 2.4 0 5.334v21.332C0 29.602 2.4 32 5.334 32h21.334C29.6 32 32 29.602 32 26.666V5.334C32 2.4 29.6 0 26.668 0zm-3.802 25.77c-.942.444-1.798.757-2.563.937-.765.178-1.593.267-2.48.267-1.01 0-1.606-.127-2.382-.38-.773-.257-1.436-.622-1.982-1.09-.55-.474-.928-.976-1.14-1.507S12 22.694 12 21.684V13.94H9v-3.127c.867-.28 1.873-.685 2.49-1.21.62-.528 1.116-1.16 1.49-1.897.375-.736.633-1.676.774-2.815h3.14V10H22v3.94h-5.106v5.662c0 1.28-.017 2.02.12 2.383.134.36.472.736.84.953.49.293 1.047.44 1.676.44 1.118 0 2.23-.364 3.336-1.09v3.48z"/></symbol><symbol viewBox="0 0 32 32"><path d="M32 6.076c-1.177.522-2.443.875-3.77 1.034 1.354-.813 2.395-2.1 2.886-3.632-1.27.752-2.674 1.3-4.17 1.593C25.75 3.797 24.044 3 22.156 3c-3.626 0-6.565 2.94-6.565 6.565 0 .515.06 1.016.17 1.496-5.455-.274-10.293-2.89-13.53-6.86-.566.97-.89 2.097-.89 3.3 0 2.28 1.16 4.288 2.92 5.466-1.075-.034-2.087-.33-2.973-.82v.082c0 3.18 2.262 5.834 5.265 6.437-.55.15-1.13.23-1.73.23-.422 0-.833-.04-1.234-.118.835 2.608 3.26 4.506 6.133 4.56-2.247 1.76-5.08 2.81-8.154 2.81-.53 0-1.052-.032-1.566-.093 2.904 1.863 6.355 2.95 10.063 2.95 12.076 0 18.68-10.004 18.68-18.68 0-.285-.007-.568-.02-.85C30.006 8.55 31.12 7.394 32 6.077z"/></symbol><symbol viewBox="0 0 32 32"><path d="M8 10c0-4.418 3.582-8 8-8s8 3.582 8 8-3.582 8-8 8-8-3.582-8-8zm16 10H8c-4.418 0-8 3.582-8 8v2h32v-2c0-4.418-3.582-8-8-8z"/></symbol><symbol viewBox="0 0 32 32"><path d="M26 4H6c-3.3 0-6 2.7-6 6v12c0 3.3 2.7 6 6 6h20c3.3 0 6-2.7 6-6V10c0-3.3-2.7-6-6-6zM12 24V8l10 8-10 8z"/></symbol>
    </symbol>

    <symbol id="facebook" viewBox="0 0 32 32">
        <path d="M26.667 0H5.334C2.4 0 0 2.4 0 5.334v21.332C0 29.602 2.4 32 5.334 32h21.333C29.6 32 32 29.602 32 26.666V5.334C32 2.4 29.6 0 26.667 0zm.54 16H22v14h-6V16h-2.89v-4.58H16V8.445C16 4.403 17.744 2 22.496 2h5.476v4.955H23.5c-1.33-.002-1.493.692-1.493 1.985L22 11.42h6L27.206 16z"/>
    </symbol>

    <symbol id="googleplus" viewBox="0 0 32 32">
        <path d="M.025 27.177c-.008-.08-.014-.158-.018-.238.004.08.01.158.018.237zm7.347-9.516c2.875.087 4.804-2.896 4.308-6.66S8.45 4.21 5.574 4.125C2.698 4.04.77 6.922 1.266 10.688c.496 3.765 3.23 6.887 6.106 6.973zM32 8V5.334C32 2.4 29.6 0 26.667 0H5.334C2.45 0 .084 2.32.004 5.185 1.828 3.58 4.358 2.238 6.97 2.238h11.163L15.635 4.35h-3.54c2.348.9 3.6 3.63 3.6 6.43 0 2.35-1.308 4.374-3.154 5.812-1.8 1.403-2.142 1.99-2.142 3.184 0 1.018 1.93 2.75 2.938 3.462 2.95 2.08 3.904 4.01 3.904 7.233 0 .514-.064 1.027-.19 1.53h9.617C29.6 32 32 29.604 32 26.668V10h-6v6h-2v-6h-6V8h6V2h2v6h6zM5.81 23.936c.674 0 1.293-.018 1.935-.018-.848-.823-1.52-1.83-1.52-3.074 0-.738.236-1.448.567-2.08-.337.025-.68.032-1.035.032-2.324 0-4.297-.752-5.756-1.995v8.406c1.67-.793 3.654-1.27 5.81-1.27zm-5.703 3.79c-.035-.17-.06-.343-.08-.52.02.177.046.35.08.52zm14.126 2.05c-.47-1.838-2.14-2.75-4.465-4.36-.846-.274-1.778-.435-2.778-.445-2.8-.03-5.41 1.093-6.882 2.763C.606 30.16 2.765 32 5.334 32h8.95c.058-.348.085-.707.085-1.076 0-.392-.05-.775-.138-1.148z"/>
    </symbol>

    <symbol id="help" viewBox="0 0 40 40">
        <path d="M19.756 1.602c-10.162.136-18.29 8.484-18.154 18.646.136 10.156 8.484 18.286 18.646 18.15 10.158-.136 18.288-8.484 18.15-18.646-.134-10.158-8.482-18.286-18.642-18.15zM19.702 31.2H19.6c-1.564-.046-2.668-1.2-2.624-2.742.044-1.514 1.174-2.616 2.688-2.616l.092.002c1.608.048 2.7 1.19 2.652 2.776-.044 1.518-1.158 2.58-2.706 2.58zm6.582-13.064c-.37.522-1.178 1.172-2.198 1.966l-1.124.776c-.616.48-.988.93-1.126 1.372-.112.352-.164.442-.174 1.152l-.002.182h-4.286l.012-.364c.052-1.492.09-2.368.708-3.094.97-1.138 3.11-2.516 3.2-2.574.306-.232.564-.494.758-.774.45-.62.648-1.11.648-1.588 0-.666-.198-1.282-.588-1.83-.376-.53-1.09-.798-2.122-.798-1.024 0-1.724.326-2.144.992-.434.686-.65 1.404-.65 2.14v.184h-4.42l.008-.192c.114-2.708 1.08-4.656 2.872-5.794C16.78 9.166 18.18 8.8 19.812 8.8c2.138 0 3.946.52 5.366 1.544 1.44 1.038 2.17 2.594 2.17 4.622 0 1.136-.358 2.202-1.064 3.17z"/>
    </symbol>

    <symbol id="home" viewBox="0 0 295.003 226.261">
        <path d="M284.04 110.28l-35.853-30.574V4c0-2.21-1.976-4-4.415-4H202.57c-2.438 0-4.415 1.79-4.415 4v33.04L160.22 4.685c-7.328-6.248-19.207-6.248-26.534 0L9.864 110.28c-15.677 13.37-10.362 22.628 0 22.628H33.21v81.353c0 6.628 6.3 12 14.07 12h68.093v-87.927c0-2.21 2.1-4 4.69-4h53.777c2.59 0 4.69 1.79 4.69 4v87.928h68.093c7.77 0 14.07-5.372 14.07-12V132.91h23.346c10.52 0 18.218-7.09 0-22.627z"/>
    </symbol>

    <symbol id="instagram" viewBox="0 0 32 32">
        <path d="M26.688 0H5.313C2.39 0 0 2.39 0 5.313v21.375C0 29.61 2.39 32 5.313 32h21.375C29.61 32 32 29.61 32 26.69V5.313C32 2.39 29.61 0 26.69 0zM10.244 14h11.513c.218.627.337 1.3.337 2 0 3.36-2.734 6.094-6.094 6.094S9.906 19.36 9.906 16c0-.7.12-1.373.338-2zM28 14.002V26c0 1.1-.9 2-2 2H6c-1.1 0-2-.9-2-2V14h3.128c-.145.644-.222 1.313-.222 2 0 5.014 4.08 9.094 9.094 9.094s9.094-4.08 9.094-9.094c0-.687-.077-1.356-.222-2l3.128.002zM28 7c0 .55-.45 1-1 1h-2c-.55 0-1-.45-1-1V5c0-.55.45-1 1-1h2c.55 0 1 .45 1 1v2z"/>
    </symbol>

    <symbol id="line-briefcase" viewBox="0 0 32 32">
        <path d="M14.826 19.006h.005l1.933-.02c.275-.005.496-.23.493-.506s-.225-.492-.505-.494l-1.93.022c-.275.004-.496.23-.492.504.002.274.225.494.498.494zm15.83-10.408H24.25c.01-.066.02-.132.02-.2 0-.455-.25-.853-.623-1.08V2.65c0-.274-.224-.498-.5-.498H7.988c-.274 0-.498.224-.498.5v4.645c-.4.22-.672.628-.672 1.1 0 .07.01.136.02.202H1.345C.604 8.597 0 9.2 0 9.94v18.567c0 .74.603 1.343 1.344 1.343h29.312c.74 0 1.344-.603 1.344-1.343V9.94c0-.74-.603-1.342-1.344-1.342zm-.195 1.15L19.216 17.44V9.75H30.46zm-20.055-2.4v-2.28h10.373v2.227c-.4.22-.672.63-.672 1.103 0 .07.01.135.02.2H10.96c.012-.065.02-.13.02-.2 0-.437-.226-.822-.575-1.05zm12.867 1.048c0 .08-.04.15-.103.2h-1.963c-.062-.05-.103-.12-.103-.2 0-.152.146-.277.325-.277h1.516c.18 0 .326.124.326.276zM8.486 3.146H22.65v3.975h-.874V4.568c0-.275-.224-.5-.5-.5H9.907c-.274 0-.498.225-.498.5V7.12h-.922V3.148zM8.142 8.12h1.516c.18 0 .327.124.327.276 0 .08-.04.15-.104.2H7.92c-.065-.05-.106-.12-.106-.2 0-.152.148-.277.328-.277zm4.164 20.58H1.344c-.104 0-.192-.09-.192-.192V10.21l11.154 8.67v9.82zm0-11.28L2.433 9.75h9.873v7.67zm5.756 4.543h-.574c-.276 0-.5.224-.5.5 0 .275.224.5.5.5h.574v.68h-.574c-.276 0-.5.224-.5.5 0 .275.224.498.5.498h.574v.826h-.574c-.276 0-.5.223-.5.5 0 .274.224.498.5.498h.574V27h-.574c-.276 0-.5.225-.5.5s.224.5.5.5h.574v.7h-4.605V28h.624c.276 0 .5-.225.5-.5s-.224-.5-.5-.5h-.623v-.536h.624c.276 0 .5-.224.5-.5 0-.275-.224-.498-.5-.498h-.623v-.825h.624c.276 0 .5-.222.5-.498 0-.275-.224-.5-.5-.5h-.623v-.68h.624c.276 0 .5-.224.5-.5 0-.275-.224-.5-.5-.5h-.623v-.7h4.605v.7zm0-1.852h-4.605v-4.7h4.605v4.7zm0-9.397h-.592c-.275 0-.5.224-.5.5s.225.498.5.498h.592v.683h-.592c-.275 0-.5.223-.5.5 0 .273.225.497.5.497h.592v.87h-4.605v-.87h.606c.276 0 .5-.224.5-.498 0-.276-.224-.5-.5-.5h-.606v-.68h.606c.276 0 .5-.225.5-.5s-.224-.5-.5-.5h-.606V9.75h4.605v.963zM30.85 28.508c0 .104-.09.19-.193.19H19.215v-9.863L30.85 10.88v17.628z"/>
    </symbol>

    <symbol id="line-chemistry" viewBox="0 0 32 32">
        <path d="M28.29 28.495l-7.782-13.263v-12.6c0-.013-.007-.024-.008-.037.064-.19.11-.392.11-.603C20.61.894 19.66 0 18.497 0h-4.996c-1.164 0-2.11.894-2.11 1.993 0 .198.04.387.097.567-.005.025-.015.047-.015.073v12.63L3.71 28.495c-.52.888-.59 1.755-.197 2.44C3.905 31.623 4.688 32 5.718 32H26.28c1.03 0 1.813-.378 2.206-1.064.394-.686.324-1.553-.197-2.44zM13.5 1.148h4.996c.53 0 .963.378.963.844 0 .465-.43.844-.962.844h-4.996c-.53 0-.964-.38-.964-.844 0-.465.433-.844.964-.844zm8.52 21.835c-.323.39-.526.608-.937.608-.41 0-.612-.22-.937-.607-.35-.417-.782-.937-1.642-.937s-1.292.52-1.64.938c-.323.387-.526.607-.935.607s-.61-.22-.934-.606c-.35-.418-.78-.938-1.64-.938s-1.292.52-1.64.938c-.323.387-.526.607-.935.607-.405 0-.607-.22-.93-.606-.263-.315-.574-.688-1.08-.854L10 20.037h1.778c.254 0 .46-.205.46-.46 0-.25-.206-.458-.46-.458h-1.24l.64-1.092h1.365c.255 0 .46-.205.46-.458s-.205-.46-.46-.46h-.826l.732-1.248h1.02c.254 0 .46-.206.46-.46 0-.253-.206-.46-.46-.46h-.853v-1.375l1.225-.003c.253 0 .46-.207.457-.46 0-.253-.207-.458-.46-.458l-1.223.004v-1.38h1.223c.255 0 .46-.206.46-.46s-.205-.458-.46-.458h-1.223V8.974h1.223c.255 0 .46-.206.46-.46 0-.253-.205-.458-.46-.458h-1.223V6.31h1.223c.255 0 .46-.205.46-.46s-.2-.46-.455-.46h-1.223V3.8c.27.117.565.187.88.187h4.996c.308 0 .598-.066.86-.177v11.595c0 .134.055.25.13.35.006.01.005.02.01.03l3.712 6.323c-.567.144-.907.542-1.188.877z"/>
    </symbol>

    <symbol id="line-globe" viewBox="0 0 32 32">
        <g><path d="M28.74 19.854l-2.132 2.133-1.754-1.754c2.733-3.042 3.458-7.23 2.175-10.9-.526-1.498-1.35-2.907-2.543-4.102-2.06-2.06-4.808-3.198-7.727-3.198-.205 0-.402.046-.607.06-.063.006-.123-.008-.183.016-2.42.175-4.676 1.127-6.48 2.755L7.733 3.108l2.13-2.13c.223-.224.223-.586 0-.81-.226-.225-.59-.225-.814 0L6.517 2.7c-5.65 5.655-5.65 14.852 0 20.502 2.714 2.713 6.247 4.11 9.81 4.22-.21 1.082-.953 3.43-3.462 3.43h-.717c-.317 0-.575.26-.575.573 0 .315.258.573.575.573h9.237c.317 0 .577-.258.577-.573 0-.314-.26-.572-.577-.572h-5.562c1.025-.983 1.5-2.382 1.664-3.446 3.466-.173 6.884-1.562 9.527-4.205l2.54-2.54c.223-.224.223-.584 0-.81-.226-.225-.59-.225-.814 0zm-5.065.012c-1.847 1.847-4.298 2.865-6.91 2.865-2.608 0-5.065-1.018-6.91-2.864-1.155-1.154-1.918-2.543-2.373-4.006l1.015-.31 1.33.967c.102.073.222.11.34.11.16 0 .325-.074.437-.207l1.973-2.317c.15-.17.187-.41.093-.617-.093-.203-.298-.336-.522-.336h-1.403l-.736-.51-.046-.95.93-.648c.15-.106.244-.282.244-.47v-3.4c0-.316-.257-.573-.57-.573H9.4c.16-.185.28-.383.454-.556 1.48-1.482 3.357-2.4 5.388-2.715l-.654 1.422c-.096.216-.055.468.11.637l1.086 1.134c.05.053.106.092.17.124l2.222 1.046c.17.076.355.068.512-.012 0 0 .547-.288.892-.503.34 0 1.417.24 2.345.497l1.72 2.03c.11.126.27.2.44.2h1.922c1.11 3.394.36 7.27-2.332 9.96zM8.515 7.746H9.99v2.527l-.947.657c-.162.112-.255.3-.24.498l.067 1.552c.01.18.102.343.25.447l1.115.77c.097.066.21.102.33.102h.313l-.812.974-1.133-.818c-.146-.106-.334-.134-.504-.085l-1.26.387c-.443-2.385.012-4.897 1.344-7.012zm15.16-1.702c.808.808 1.406 1.738 1.874 2.716h-1.202L22.685 6.8c-.074-.086-.17-.148-.28-.18-2.842-.807-3.184-.58-3.373-.454-.166.11-.432.26-.623.364l-1.87-.876-.744-.777.77-1.677c.065-.003.13-.02.194-.02 2.614 0 5.068 1.016 6.915 2.864zM6.963 3.964L8.676 5.68c-.316.35-.62.7-.882 1.08-.01.01-.017.024-.03.038-2.908 4.25-2.495 10.11 1.278 13.88 2.063 2.064 4.805 3.2 7.722 3.2 2.725 0 5.272-1.023 7.278-2.834l1.712 1.713c-5.23 4.793-13.36 4.7-18.425-.365C2.264 17.33 2.17 9.195 6.962 3.964zM19.34 14.36c-.13-.175-.357-.252-.573-.216-.214.044-.39.21-.438.425-.097.373-.208.795-.31 1.134-.358-.274-.903-.652-1.727-1.175l-2.126-1.297c-.147-.092-.343-.106-.504-.04-.17.062-.295.202-.347.374l-.484 1.7-1.582 1.978c-.08.103-.123.23-.123.36v1.963c0 .263.178.493.432.557l2.933.724h4.392c.112 0 .222-.037.314-.097l1.813-1.188c.16-.106.255-.287.255-.48V17.09c0-.127-.04-.247-.112-.35l-1.815-2.38zm.78 4.414l-1.408.924-4.077.018-2.36-.594v-1.316l1.528-1.91c.047-.06.082-.128.104-.202l.31-1.083 1.472.896c.856.544 1.874 1.255 1.98 1.346.08.235.325.425.572.425.383 0 .57-.14.897-1.283l.98 1.288v1.492zM24.89 10.203h-2.126c-.317 0-.574.26-.574.575v2.175c0 .182.088.35.23.46.098.073.22.113.344.113.053 0 .107-.005.162-.02l2.125-.62c.245-.07.415-.295.415-.552v-1.556c0-.316-.258-.575-.575-.575zm-.575 1.7l-.978.285v-.837h.978v.554z"/></g>
    </symbol>

    <symbol id="line-list" viewBox="0 0 32 32">
        <g><path d="M2.892 13.107C1.298 13.107 0 14.403 0 16c0 1.594 1.298 2.893 2.892 2.893 1.597 0 2.893-1.3 2.893-2.894 0-1.597-1.297-2.893-2.893-2.893zm0 4.596c-.938 0-1.7-.765-1.7-1.704 0-.94.762-1.704 1.7-1.704.94 0 1.704.763 1.704 1.703 0 .938-.764 1.703-1.704 1.703zM2.892 1.624C1.298 1.624 0 2.92 0 4.514 0 6.11 1.298 7.41 2.892 7.41c1.597 0 2.893-1.3 2.893-2.896 0-1.593-1.297-2.89-2.893-2.89zm0 4.598c-.938 0-1.7-.766-1.7-1.707 0-.94.762-1.7 1.7-1.7.94 0 1.704.76 1.704 1.7s-.764 1.707-1.704 1.707zM2.892 24.59C1.298 24.59 0 25.885 0 27.483c0 1.594 1.298 2.892 2.892 2.892 1.597 0 2.893-1.298 2.893-2.892 0-1.598-1.297-2.895-2.893-2.895zm0 4.597c-.938 0-1.7-.764-1.7-1.702 0-.943.762-1.706 1.7-1.706.94 0 1.704.762 1.704 1.705 0 .938-.764 1.702-1.704 1.702zM31.404 26.89H9.78c-.33 0-.594.268-.594.595 0 .326.265.594.594.594h21.624c.33 0 .596-.27.596-.595 0-.328-.266-.596-.596-.596zM31.404 15.4H9.78c-.33 0-.594.27-.594.6 0 .325.265.59.594.59h21.624c.33 0 .596-.265.596-.59 0-.33-.266-.6-.596-.6zM31.404 3.92H9.78c-.33 0-.594.267-.594.595s.265.594.594.594h21.624c.33 0 .596-.268.596-.596s-.266-.594-.596-.594z"/></g>
    </symbol>

    <symbol id="line-office" viewBox="0 0 32 32">
        <path d="M31.218 27.78h-1.56c.24-.386.387-.817.387-1.28V6.427c0-1.51-1.426-2.736-3.18-2.736h-8.37c-.735 0-1.404.224-1.942.586V3.024c0-1.67-1.45-3.024-3.232-3.024H4.78C2.995 0 1.547 1.355 1.547 3.024v23.12c0 .604.193 1.16.52 1.635H.782c-.427 0-.774.332-.774.745v2.724c0 .415.347.75.774.75h30.436c.426 0 .774-.335.774-.75v-2.725c0-.413-.348-.746-.774-.746zM16.813 6.427c0-.67.77-1.237 1.68-1.237h8.373c.91 0 1.68.567 1.68 1.238v20.07c0 .67-.77 1.234-1.68 1.234h-8.372c-.912 0-1.68-.564-1.68-1.233V6.427zM3.048 3.024c0-.854.776-1.548 1.73-1.548h8.543c.956 0 1.732.694 1.732 1.548v23.12c0 .855-.776 1.55-1.73 1.55H4.778c-.956 0-1.732-.694-1.732-1.55V3.024zM30.44 30.5H1.56v-1.224H30.44V30.5zm-4.537-5.83h-6.21c-.425 0-.77.295-.77.658 0 .365.345.658.77.658h6.21c.423 0 .766-.293.766-.658 0-.363-.344-.658-.767-.658zM4.89 23.138h8.31c.39 0 .7-.324.7-.727V4.727c0-.402-.312-.73-.7-.73H4.89c-.386 0-.698.327-.698.73v17.686c0 .4.312.726.7.726zM9.736 5.453h2.767v3.02H9.735v-3.02zm0 4.426h2.767v2.66H9.735V9.88zm0 4.067h2.767v3.32H9.735v-3.32zm0 4.73h2.767v3.006H9.735v-3.005zM5.59 5.454h2.846v3.02H5.59v-3.02zm0 4.426h2.846v2.66H5.59V9.88zm0 4.067h2.846v3.32H5.59v-3.32zm0 4.73h2.846v3.006H5.59v-3.005zm6.954 5.952H6.337c-.39 0-.707.313-.707.698 0 .388.317.7.707.7h6.207c.39 0 .707-.312.707-.7 0-.385-.316-.7-.706-.7zm5.95-1.425h8.44c.415 0 .75-.337.75-.75V7.684c0-.414-.335-.75-.75-.75h-8.44c-.414 0-.75.336-.75.75v14.77c0 .413.336.75.75.75zm4.954-14.77h2.736v3.897h-2.736V8.435zm0 5.304h2.736V17.1h-2.736V13.74zm0 4.768h2.736v3.195h-2.736v-3.195zM19.242 8.435h2.906v3.897h-2.906V8.435zm0 5.304h2.906V17.1h-2.906V13.74zm0 4.768h2.906v3.195h-2.906v-3.195z"/>
    </symbol>

    <symbol id="line-skills" viewBox="0 0 32 32">
        <g><path d="M28 32h-9.333c-.37 0-.667-.3-.667-.667V.667C18 .3 18.298 0 18.667 0H28c.368 0 .667.3.667.667v30.667c0 .367-.3.666-.667.666zm-8.667-1.333h8V1.333h-8v29.334zM18.667 5.333H22v1.333h-3.333zM18.667 9.333H22v1.333h-3.333zM18.667 13.333H22v1.333h-3.333zM18.667 17.333H22v1.334h-3.333zM18.667 21.333H22v1.334h-3.333zM18.667 25.333H22v1.334h-3.333zM9.333 30.667H6.666c-1.838 0-3.333-1.496-3.333-3.334V8c0-.13.04-.26.112-.37l4-6c.247-.37.86-.37 1.11 0l4 6c.07.11.11.24.11.37v19.333c0 1.838-1.494 3.334-3.332 3.334zM4.666 8.202v19.13c0 1.105.897 2 2 2h2.667c1.103 0 2-.895 2-2V8.203L8 3.202l-3.334 5zM12 26.667H4c-.37 0-.667-.3-.667-.667s.298-.667.667-.667h8c.368 0 .666.3.666.667s-.298.667-.666.667zM12 24H4c-.37 0-.667-.3-.667-.667 0-.367.298-.666.667-.666h8c.368 0 .666.3.666.666 0 .368-.298.667-.666.667zM6.666 24C6.298 24 6 23.7 6 23.333V10.667c0-.368.298-.667.666-.667.37 0 .667.3.667.667v12.667c0 .367-.298.666-.667.666zM9.333 24c-.37 0-.667-.3-.667-.667V10.667c0-.368.298-.667.667-.667s.667.3.667.667v12.667c0 .367-.298.666-.667.666zM6 4.667h4V6H6zM6 11.333c-1.47 0-2.667-1.196-2.667-2.667C3.333 8.3 3.63 8 4 8c.368 0 .666.3.666.667C4.666 9.402 5.266 10 6 10s1.333-.598 1.333-1.333C7.333 8.3 7.63 8 8 8c.368 0 .666.3.666.667 0 1.47-1.195 2.666-2.666 2.666zM10 11.333c-1.47 0-2.667-1.196-2.667-2.667C7.333 8.3 7.63 8 8 8c.368 0 .666.3.666.667 0 .735.6 1.333 1.334 1.333s1.333-.598 1.333-1.333C11.333 8.3 11.63 8 12 8c.368 0 .666.3.666.667 0 1.47-1.195 2.666-2.666 2.666z"/></g>
    </symbol>

    <symbol id="linkedin" viewBox="0 0 32 32">
        <path d="M26.625 0H5.375C2.42 0 0 2.42 0 5.375v21.25C0 29.58 2.42 32 5.375 32h21.25C29.58 32 32 29.58 32 26.625V5.375C32 2.42 29.58 0 26.625 0zM12 26H8V12h4v14zm-2-16c-1.105 0-2-.895-2-2s.895-2 2-2 2 .895 2 2-.895 2-2 2zm16 16h-4v-8c0-1.105-.895-2-2-2s-2 .895-2 2v8h-4V12h4v2.483C18.825 13.35 20.086 12 21.5 12c2.485 0 4.5 2.24 4.5 5v9z"/>
    </symbol>

    <symbol id="location" viewBox="0 0 32 32">
        <path d="M16 0C10.477 0 6 4.477 6 10c0 10 10 22 10 22s10-12 10-22c0-5.523-4.477-10-10-10zm0 16c-3.314 0-6-2.686-6-6s2.686-6 6-6 6 2.686 6 6-2.686 6-6 6z"/>
    </symbol>

    <symbol id="search" viewBox="0 0 32 32">
        <path d="M31.008 27.23l-7.58-6.446c-.784-.705-1.622-1.03-2.3-.998C22.92 17.69 24 14.97 24 12 24 5.37 18.627 0 12 0S0 5.37 0 12c0 6.626 5.374 12 12 12 2.973 0 5.692-1.082 7.788-2.87-.03.676.293 1.514.998 2.298l6.447 7.58c1.105 1.226 2.908 1.33 4.008.23s.997-2.903-.23-4.007zM12 20c-4.418 0-8-3.582-8-8s3.582-8 8-8 8 3.582 8 8-3.582 8-8 8z"/>
    </symbol>

    <symbol id="tumblr" viewBox="0 0 32 32">
        <path d="M26.668 0H5.334C2.4 0 0 2.4 0 5.334v21.332C0 29.602 2.4 32 5.334 32h21.334C29.6 32 32 29.602 32 26.666V5.334C32 2.4 29.6 0 26.668 0zm-3.802 25.77c-.942.444-1.798.757-2.563.937-.765.178-1.593.267-2.48.267-1.01 0-1.606-.127-2.382-.38-.774-.257-1.437-.622-1.983-1.09-.55-.474-.928-.976-1.14-1.507S12 22.694 12 21.684V13.94H9v-3.127c.867-.28 1.873-.685 2.49-1.21.62-.528 1.116-1.16 1.49-1.897.375-.736.633-1.676.774-2.815h3.14V10H22v3.94h-5.106v5.662c0 1.28-.017 2.02.12 2.383.134.36.472.736.84.953.49.293 1.047.44 1.676.44 1.118 0 2.23-.364 3.336-1.09v3.48z"/>
    </symbol>

    <symbol id="twitter" viewBox="0 0 32 32">
        <path d="M32 6.076c-1.177.522-2.443.875-3.77 1.034 1.354-.813 2.395-2.1 2.886-3.632-1.27.752-2.674 1.3-4.17 1.593C25.75 3.796 24.044 3 22.157 3c-3.627 0-6.566 2.94-6.566 6.565 0 .515.058 1.016.17 1.496-5.456-.275-10.294-2.89-13.532-6.86-.565.97-.89 2.096-.89 3.3 0 2.278 1.16 4.287 2.922 5.465-1.076-.034-2.088-.33-2.974-.82v.082c0 3.18 2.262 5.834 5.265 6.437-.55.15-1.13.23-1.73.23-.422 0-.833-.04-1.234-.118.835 2.608 3.26 4.506 6.133 4.56-2.248 1.76-5.08 2.81-8.155 2.81-.53 0-1.052-.032-1.566-.093 2.904 1.863 6.355 2.95 10.063 2.95 12.076 0 18.68-10.004 18.68-18.68 0-.285-.007-.568-.02-.85C30.006 8.55 31.12 7.394 32 6.077z"/>
    </symbol>

    <symbol id="user" viewBox="0 0 32 32">
        <path d="M8 10c0-4.418 3.582-8 8-8s8 3.582 8 8-3.582 8-8 8-8-3.582-8-8zm16 10H8c-4.418 0-8 3.582-8 8v2h32v-2c0-4.418-3.582-8-8-8z"/>
    </symbol>

    <symbol id="youtube" viewBox="0 0 32 32">
        <path d="M26 4H6c-3.3 0-6 2.7-6 6v12c0 3.3 2.7 6 6 6h20c3.3 0 6-2.7 6-6V10c0-3.3-2.7-6-6-6zM12 24V8l10 8-10 8z"/>
    </symbol>
</svg>